<svg width="64" height="65" viewBox="0 0 64 65" fill="none" xmlns="http://www.w3.org/2000/svg">
<g clip-path="url(#clip0_1_1284)">
<path d="M36.6124 56.7354C36.1436 57.5436 35.4707 58.2144 34.661 58.6808C33.8514 59.1471 32.9334 59.3926 31.9991 59.3926C31.0647 59.3926 30.1468 59.1471 29.3371 58.6808C28.5275 58.2144 27.8546 57.5436 27.3857 56.7354" stroke="white" stroke-width="5" stroke-linecap="round" stroke-linejoin="round"/>
<path d="M49.6812 35.4017C48.4949 31.0588 47.9293 26.5698 48.0012 22.0684" stroke="white" stroke-width="5" stroke-linecap="round" stroke-linejoin="round"/>
<path d="M16.6933 17.4287C16.23 18.9317 15.9963 20.496 16 22.0687C16 40.7354 8 46.0687 8 46.0687H45.3333" stroke="white" stroke-width="5" stroke-linecap="round" stroke-linejoin="round"/>
<path d="M48.0001 22.0687C48.0044 19.1702 47.2213 16.3249 45.7343 13.8369C44.2474 11.3489 42.1125 9.31148 39.5578 7.94237C37.003 6.57326 34.1243 5.92385 31.2292 6.06351C28.334 6.20317 25.5312 7.12666 23.1201 8.73533" stroke="white" stroke-width="5" stroke-linecap="round" stroke-linejoin="round"/>
<path d="M2.66699 3.40234L61.3337 62.069" stroke="white" stroke-width="5" stroke-linecap="round" stroke-linejoin="round"/>
</g>
<defs>
<clipPath id="clip0_1_1284">
<rect width="64" height="64" fill="white" transform="translate(0 0.735352)"/>
</clipPath>
</defs>
</svg>
