<svg width="64" height="65" viewBox="0 0 64 65" fill="none" xmlns="http://www.w3.org/2000/svg">
<path d="M48 22.0688C48 17.8254 46.3143 13.7557 43.3137 10.7551C40.3131 7.75456 36.2435 6.06885 32 6.06885C27.7565 6.06885 23.6869 7.75456 20.6863 10.7551C17.6857 13.7557 16 17.8254 16 22.0688C16 40.7355 8 46.0688 8 46.0688H56C56 46.0688 48 40.7355 48 22.0688Z" stroke="white" stroke-width="5" stroke-linecap="round" stroke-linejoin="round"/>
<path d="M36.6124 56.7354C36.1436 57.5436 35.4707 58.2144 34.661 58.6808C33.8514 59.1471 32.9334 59.3926 31.9991 59.3926C31.0647 59.3926 30.1468 59.1471 29.3371 58.6808C28.5275 58.2144 27.8546 57.5436 27.3857 56.7354" stroke="white" stroke-width="5" stroke-linecap="round" stroke-linejoin="round"/>
</svg>
