<svg width="64" height="65" viewBox="0 0 64 65" fill="none" xmlns="http://www.w3.org/2000/svg">
<path d="M5.33398 8.73535H21.334C24.163 8.73535 26.8761 9.85916 28.8765 11.8595C30.8768 13.8599 32.0006 16.573 32.0006 19.402V56.7354C32.0006 54.6136 31.1578 52.5788 29.6575 51.0785C28.1572 49.5782 26.1224 48.7354 24.0006 48.7354H5.33398V8.73535Z" stroke="white" stroke-width="5" stroke-linecap="round" stroke-linejoin="round"/>
<path d="M58.6667 8.73535H42.6667C39.8377 8.73535 37.1246 9.85916 35.1242 11.8595C33.1238 13.8599 32 16.573 32 19.402V56.7354C32 54.6136 32.8429 52.5788 34.3431 51.0785C35.8434 49.5782 37.8783 48.7354 40 48.7354H58.6667V8.73535Z" stroke="white" stroke-width="5" stroke-linecap="round" stroke-linejoin="round"/>
</svg>
