<svg width="64" height="65" viewBox="0 0 64 65" fill="none" xmlns="http://www.w3.org/2000/svg">
<path d="M56 43.4021V22.0688C55.999 21.1335 55.7522 20.2149 55.2841 19.4052C54.8161 18.5955 54.1433 17.9231 53.3333 17.4554L34.6667 6.78875C33.8559 6.32065 32.9362 6.07422 32 6.07422C31.0638 6.07422 30.1441 6.32065 29.3333 6.78875L10.6667 17.4554C9.8567 17.9231 9.18395 18.5955 8.7159 19.4052C8.24785 20.2149 8.00096 21.1335 8 22.0688V43.4021C8.00096 44.3374 8.24785 45.2559 8.7159 46.0656C9.18395 46.8754 9.8567 47.5478 10.6667 48.0154L29.3333 58.6821C30.1441 59.1502 31.0638 59.3966 32 59.3966C32.9362 59.3966 33.8559 59.1502 34.6667 58.6821L53.3333 48.0154C54.1433 47.5478 54.8161 46.8754 55.2841 46.0656C55.7522 45.2559 55.999 44.3374 56 43.4021Z" stroke="white" stroke-width="5" stroke-linecap="round" stroke-linejoin="round"/>
<path d="M8.71875 19.2949L31.9987 32.7616L55.2787 19.2949" stroke="white" stroke-width="5" stroke-linecap="round" stroke-linejoin="round"/>
<path d="M32 59.6153V32.7354" stroke="white" stroke-width="5" stroke-linecap="round" stroke-linejoin="round"/>
</svg>
