<svg width="64" height="65" viewBox="0 0 64 65" fill="none" xmlns="http://www.w3.org/2000/svg">
<path d="M61.3337 51.402C61.3337 52.8165 60.7718 54.1731 59.7716 55.1733C58.7714 56.1734 57.4148 56.7354 56.0003 56.7354H8.00033C6.58584 56.7354 5.22928 56.1734 4.22909 55.1733C3.2289 54.1731 2.66699 52.8165 2.66699 51.402V22.0687C2.66699 20.6542 3.2289 19.2976 4.22909 18.2974C5.22928 17.2973 6.58584 16.7354 8.00033 16.7354H18.667L24.0003 8.73535H40.0003L45.3337 16.7354H56.0003C57.4148 16.7354 58.7714 17.2973 59.7716 18.2974C60.7718 19.2976 61.3337 20.6542 61.3337 22.0687V51.402Z" stroke="white" stroke-width="5" stroke-linecap="round" stroke-linejoin="round"/>
<path d="M32.0007 46.0687C37.8917 46.0687 42.6673 41.2931 42.6673 35.402C42.6673 29.511 37.8917 24.7354 32.0007 24.7354C26.1096 24.7354 21.334 29.511 21.334 35.402C21.334 41.2931 26.1096 46.0687 32.0007 46.0687Z" stroke="white" stroke-width="5" stroke-linecap="round" stroke-linejoin="round"/>
</svg>
