<svg width="64" height="65" viewBox="0 0 64 65" fill="none" xmlns="http://www.w3.org/2000/svg">
<g clip-path="url(#clip0_1_1461)">
<path d="M2.66699 3.40234L61.3337 62.069" stroke="white" stroke-width="5" stroke-linecap="round" stroke-linejoin="round"/>
<path d="M56.0003 56.7354H8.00033C6.58584 56.7354 5.22928 56.1734 4.22909 55.1733C3.2289 54.1731 2.66699 52.8165 2.66699 51.402V22.0687C2.66699 20.6542 3.2289 19.2976 4.22909 18.2974C5.22928 17.2973 6.58584 16.7354 8.00033 16.7354H16.0003M24.0003 8.73535H40.0003L45.3337 16.7354H56.0003C57.4148 16.7354 58.7714 17.2973 59.7716 18.2974C60.7718 19.2976 61.3337 20.6542 61.3337 22.0687V46.9754M40.747 41.482C39.8619 42.7755 38.7027 43.858 37.3518 44.6526C36.0008 45.4472 34.4914 45.9343 32.9308 46.0793C31.3703 46.2243 29.7969 46.0237 28.3227 45.4916C26.8485 44.9595 25.5097 44.1091 24.4014 43.0009C23.2932 41.8927 22.4428 40.5538 21.9107 39.0796C21.3787 37.6054 21.178 36.0321 21.323 34.4715C21.468 32.9109 21.9551 31.4015 22.7497 30.0506C23.5443 28.6996 24.6269 27.5404 25.9203 26.6554" stroke="white" stroke-width="5" stroke-linecap="round" stroke-linejoin="round"/>
</g>
<defs>
<clipPath id="clip0_1_1461">
<rect width="64" height="64" fill="white" transform="translate(0 0.735352)"/>
</clipPath>
</defs>
</svg>
