<svg
            xmlns="http://www.w3.org/2000/svg"
            width="18"
            height="18"
            viewBox="0 0 18 18"
            fill="none"
          >
            <path
              d="M2.25 5.17857C2.25 4.79969 2.40218 4.43633 2.67307 4.16842C2.94395 3.90051 3.31135 3.75 3.69444 3.75H13.8056C14.1886 3.75 14.556 3.90051 14.8269 4.16842C15.0978 4.43633 15.25 4.79969 15.25 5.17857V12.3214C15.25 12.7003 15.0978 13.0637 14.8269 13.3316C14.556 13.5995 14.1886 13.75 13.8056 13.75H3.69444C3.31135 13.75 2.94395 13.5995 2.67307 13.3316C2.40218 13.0637 2.25 12.7003 2.25 12.3214V5.17857Z"
              stroke="white"
              strokeWidth="1.4"
              strokeLinecap="round"
              strokeLinejoin="round"
            />
            <path
              d="M2.25 5.17822L8.75 9.46394L15.25 5.17822"
              stroke="white"
              strokeWidth="1.4"
              strokeLinecap="round"
              strokeLinejoin="round"
            />
          </svg>