<svg width="64" height="65" viewBox="0 0 64 65" fill="none" xmlns="http://www.w3.org/2000/svg">
<path d="M55.5723 13.0287C54.2103 11.666 52.5932 10.5851 50.8133 9.84756C49.0334 9.11006 47.1257 8.73047 45.199 8.73047C43.2724 8.73047 41.3646 9.11006 39.5847 9.84756C37.8048 10.5851 36.1877 11.666 34.8257 13.0287L31.999 15.8553L29.1723 13.0287C26.4212 10.2775 22.6898 8.73189 18.799 8.73189C14.9083 8.73189 11.1769 10.2775 8.42568 13.0287C5.6745 15.7798 4.12891 19.5112 4.12891 23.402C4.12891 27.2928 5.6745 31.0242 8.42568 33.7753L11.2523 36.602L31.999 57.3487L52.7457 36.602L55.5723 33.7753C56.935 32.4133 58.016 30.7962 58.7535 29.0163C59.491 27.2364 59.8706 25.3286 59.8706 23.402C59.8706 21.4754 59.491 19.5676 58.7535 17.7877C58.016 16.0078 56.935 14.3907 55.5723 13.0287Z" stroke="white" stroke-width="5" stroke-linecap="round" stroke-linejoin="round"/>
</svg>
