<svg width="64" height="65" viewBox="0 0 64 65" fill="none" xmlns="http://www.w3.org/2000/svg">
<path d="M58.6663 32.7354H42.6663L37.333 40.7354H26.6663L21.333 32.7354H5.33301" stroke="white" stroke-width="5" stroke-linecap="round" stroke-linejoin="round"/>
<path d="M14.533 14.3623L5.33301 32.7357V48.7357C5.33301 50.1502 5.89491 51.5067 6.8951 52.5069C7.8953 53.5071 9.25185 54.069 10.6663 54.069H53.333C54.7475 54.069 56.104 53.5071 57.1042 52.5069C58.1044 51.5067 58.6663 50.1502 58.6663 48.7357V32.7357L49.4663 14.3623C49.0248 13.4738 48.3441 12.726 47.5009 12.2031C46.6576 11.6802 45.6852 11.4029 44.693 11.4023H19.3063C18.3141 11.4029 17.3417 11.6802 16.4985 12.2031C15.6552 12.726 14.9745 13.4738 14.533 14.3623Z" stroke="white" stroke-width="5" stroke-linecap="round" stroke-linejoin="round"/>
</svg>
