<svg width="64" height="65" viewBox="0 0 64 65" fill="none" xmlns="http://www.w3.org/2000/svg">
<path d="M40.0003 19.4023H48.0003C49.7513 19.4023 51.4851 19.7472 53.1028 20.4173C54.7204 21.0873 56.1903 22.0695 57.4284 23.3076C58.6665 24.5457 59.6487 26.0156 60.3187 27.6332C60.9888 29.2509 61.3337 30.9847 61.3337 32.7357C61.3337 34.4866 60.9888 36.2204 60.3187 37.8381C59.6487 39.4558 58.6665 40.9257 57.4284 42.1638C56.1903 43.4019 54.7204 44.384 53.1028 45.0541C51.4851 45.7241 49.7513 46.069 48.0003 46.069H40.0003M24.0003 46.069H16.0003C14.2494 46.069 12.5156 45.7241 10.8979 45.0541C9.2802 44.384 7.81035 43.4019 6.57224 42.1638C4.07175 39.6633 2.66699 36.2719 2.66699 32.7357C2.66699 29.1995 4.07175 25.8081 6.57224 23.3076C9.07272 20.8071 12.4641 19.4023 16.0003 19.4023H24.0003" stroke="white" stroke-width="5" stroke-linecap="round" stroke-linejoin="round"/>
<path d="M21.333 32.7354H42.6663" stroke="white" stroke-width="5" stroke-linecap="round" stroke-linejoin="round"/>
</svg>
