<svg width="64" height="65" viewBox="0 0 64 65" fill="none" xmlns="http://www.w3.org/2000/svg">
<path d="M26.666 35.4023C27.8112 36.9333 29.2723 38.2001 30.9501 39.1168C32.628 40.0334 34.4834 40.5786 36.3904 40.7151C38.2975 40.8517 40.2116 40.5766 42.0029 39.9083C43.7943 39.2401 45.421 38.1944 46.7727 36.8423L54.7727 28.8423C57.2015 26.3276 58.5454 22.9595 58.515 19.4636C58.4846 15.9676 57.0824 12.6234 54.6103 10.1513C52.1382 7.67923 48.794 6.27698 45.298 6.2466C41.8021 6.21622 38.434 7.56014 35.9193 9.98892L31.3327 14.5489" stroke="white" stroke-width="5" stroke-linecap="round" stroke-linejoin="round"/>
<path d="M37.3319 30.0686C36.1867 28.5376 34.7256 27.2708 33.0478 26.3541C31.3699 25.4374 29.5146 24.8923 27.6075 24.7557C25.7005 24.6192 23.7863 24.8943 21.995 25.5626C20.2036 26.2308 18.5769 27.2764 17.2252 28.6286L9.22525 36.6286C6.79647 39.1433 5.45255 42.5114 5.48293 46.0073C5.5133 49.5033 6.91556 52.8474 9.38767 55.3196C11.8598 57.7917 15.2039 59.1939 18.6999 59.2243C22.1959 59.2547 25.5639 57.9107 28.0786 55.482L32.6386 50.922" stroke="white" stroke-width="5" stroke-linecap="round" stroke-linejoin="round"/>
</svg>
