<svg width="64" height="65" viewBox="0 0 64 65" fill="none" xmlns="http://www.w3.org/2000/svg">
<g clip-path="url(#clip0_1_1632)">
<path d="M2.66699 3.40186L61.3337 62.0685" stroke="white" stroke-width="5" stroke-linecap="round" stroke-linejoin="round"/>
<path d="M24 24.7359V32.7359C24.0014 34.3172 24.4713 35.8625 25.3505 37.1768C26.2296 38.4911 27.4785 39.5154 28.9395 40.1203C30.4004 40.7252 32.0079 40.8837 33.5588 40.5756C35.1097 40.2675 36.5345 39.5067 37.6533 38.3893M40 25.6426V11.4026C40.002 9.41867 39.2667 7.50478 37.937 6.03246C36.6073 4.56014 34.7779 3.63443 32.804 3.43505C30.8301 3.23567 28.8526 3.77683 27.2552 4.95349C25.6579 6.13015 24.5548 7.85834 24.16 9.80259" stroke="white" stroke-width="5" stroke-linecap="round" stroke-linejoin="round"/>
<path d="M45.3345 45.9357C42.7312 48.5928 39.3935 50.4116 35.7494 51.1586C32.1054 51.9057 28.3212 51.5469 24.8825 50.1284C21.4437 48.7099 18.5072 46.2964 16.4496 43.1974C14.392 40.0985 13.3073 36.4554 13.3345 32.7357V27.4023M50.6678 27.4023V32.7357C50.6669 33.8355 50.5687 34.9331 50.3745 36.0157" stroke="white" stroke-width="5" stroke-linecap="round" stroke-linejoin="round"/>
<path d="M32 51.4023V62.069" stroke="white" stroke-width="5" stroke-linecap="round" stroke-linejoin="round"/>
<path d="M21.334 62.0684H42.6673" stroke="white" stroke-width="5" stroke-linecap="round" stroke-linejoin="round"/>
</g>
<defs>
<clipPath id="clip0_1_1632">
<rect width="64" height="64" fill="white" transform="translate(0 0.735352)"/>
</clipPath>
</defs>
</svg>
