<svg width="64" height="65" viewBox="0 0 64 65" fill="none" xmlns="http://www.w3.org/2000/svg">
<g clip-path="url(#clip0_1_1615)">
<path d="M32 3.40234C29.8783 3.40234 27.8434 4.2452 26.3431 5.74549C24.8429 7.24578 24 9.28061 24 11.4023V32.7357C24 34.8574 24.8429 36.8922 26.3431 38.3925C27.8434 39.8928 29.8783 40.7357 32 40.7357C34.1217 40.7357 36.1566 39.8928 37.6569 38.3925C39.1571 36.8922 40 34.8574 40 32.7357V11.4023C40 9.28061 39.1571 7.24578 37.6569 5.74549C36.1566 4.2452 34.1217 3.40234 32 3.40234Z" stroke="white" stroke-width="5" stroke-linecap="round" stroke-linejoin="round"/>
<path d="M50.6663 27.4019V32.7352C50.6663 37.6859 48.6997 42.4338 45.199 45.9345C41.6983 49.4352 36.9504 51.4019 31.9997 51.4019C27.049 51.4019 22.301 49.4352 18.8003 45.9345C15.2997 42.4338 13.333 37.6859 13.333 32.7352V27.4019" stroke="white" stroke-width="5" stroke-linecap="round" stroke-linejoin="round"/>
<path d="M32 51.4023V62.069" stroke="white" stroke-width="5" stroke-linecap="round" stroke-linejoin="round"/>
<path d="M21.333 62.0688H42.6663" stroke="white" stroke-width="5" stroke-linecap="round" stroke-linejoin="round"/>
</g>
<defs>
<clipPath id="clip0_1_1615">
<rect width="64" height="64" fill="white" transform="translate(0 0.735352)"/>
</clipPath>
</defs>
</svg>
