<svg width="64" height="65" viewBox="0 0 64 65" fill="none" xmlns="http://www.w3.org/2000/svg">
<path d="M32.0016 35.4017C33.4744 35.4017 34.6683 34.2078 34.6683 32.735C34.6683 31.2623 33.4744 30.0684 32.0016 30.0684C30.5289 30.0684 29.335 31.2623 29.335 32.735C29.335 34.2078 30.5289 35.4017 32.0016 35.4017Z" stroke="white" stroke-width="5" stroke-linecap="round" stroke-linejoin="round"/>
<path d="M32.0016 16.7357C33.4744 16.7357 34.6683 15.5418 34.6683 14.069C34.6683 12.5963 33.4744 11.4023 32.0016 11.4023C30.5289 11.4023 29.335 12.5963 29.335 14.069C29.335 15.5418 30.5289 16.7357 32.0016 16.7357Z" stroke="white" stroke-width="5" stroke-linecap="round" stroke-linejoin="round"/>
<path d="M32.0016 54.0687C33.4744 54.0687 34.6683 52.8748 34.6683 51.402C34.6683 49.9293 33.4744 48.7354 32.0016 48.7354C30.5289 48.7354 29.335 49.9293 29.335 51.402C29.335 52.8748 30.5289 54.0687 32.0016 54.0687Z" stroke="white" stroke-width="5" stroke-linecap="round" stroke-linejoin="round"/>
</svg>
