<svg width="64" height="65" viewBox="0 0 64 65" fill="none" xmlns="http://www.w3.org/2000/svg">
<path d="M32.0007 35.4022C33.4734 35.4022 34.6673 34.2083 34.6673 32.7355C34.6673 31.2628 33.4734 30.0688 32.0007 30.0688C30.5279 30.0688 29.334 31.2628 29.334 32.7355C29.334 34.2083 30.5279 35.4022 32.0007 35.4022Z" stroke="white" stroke-width="5" stroke-linecap="round" stroke-linejoin="round"/>
<path d="M50.6676 35.4017C52.1404 35.4017 53.3343 34.2078 53.3343 32.735C53.3343 31.2623 52.1404 30.0684 50.6676 30.0684C49.1949 30.0684 48.001 31.2623 48.001 32.735C48.001 34.2078 49.1949 35.4017 50.6676 35.4017Z" stroke="white" stroke-width="5" stroke-linecap="round" stroke-linejoin="round"/>
<path d="M13.3337 35.4017C14.8064 35.4017 16.0003 34.2078 16.0003 32.735C16.0003 31.2623 14.8064 30.0684 13.3337 30.0684C11.8609 30.0684 10.667 31.2623 10.667 32.735C10.667 34.2078 11.8609 35.4017 13.3337 35.4017Z" stroke="white" stroke-width="5" stroke-linecap="round" stroke-linejoin="round"/>
</svg>
