<svg width="64" height="65" viewBox="0 0 64 65" fill="none" xmlns="http://www.w3.org/2000/svg">
<path d="M57.1744 30.202L32.6678 54.7086C29.6655 57.7109 25.5936 59.3975 21.3478 59.3975C17.1019 59.3975 13.03 57.7109 10.0278 54.7086C7.02551 51.7064 5.33887 47.6345 5.33887 43.3886C5.33887 39.1428 7.02551 35.0709 10.0278 32.0686L34.5344 7.56197C36.5359 5.56047 39.2505 4.43604 42.0811 4.43604C44.9116 4.43604 47.6263 5.56047 49.6278 7.56197C51.6293 9.56347 52.7537 12.2781 52.7537 15.1086C52.7537 17.9392 51.6293 20.6538 49.6278 22.6553L25.0944 47.162C24.0937 48.1627 22.7364 48.7249 21.3211 48.7249C19.9058 48.7249 18.5485 48.1627 17.5478 47.162C16.547 46.1612 15.9848 44.8039 15.9848 43.3886C15.9848 41.9734 16.547 40.6161 17.5478 39.6153L40.1878 17.002" stroke="white" stroke-width="5" stroke-linecap="round" stroke-linejoin="round"/>
</svg>
