<svg width="64" height="65" viewBox="0 0 64 65" fill="none" xmlns="http://www.w3.org/2000/svg">
<path d="M16 6.06836L8 16.735V54.0684C8 55.4828 8.5619 56.8394 9.5621 57.8396C10.5623 58.8398 11.9188 59.4017 13.3333 59.4017H50.6667C52.0812 59.4017 53.4377 58.8398 54.4379 57.8396C55.4381 56.8394 56 55.4828 56 54.0684V16.735L48 6.06836H16Z" stroke="white" stroke-width="5" stroke-linecap="round" stroke-linejoin="round"/>
<path d="M8 16.7354H56" stroke="white" stroke-width="5" stroke-linecap="round" stroke-linejoin="round"/>
<path d="M42.6673 27.4023C42.6673 30.2313 41.5435 32.9444 39.5431 34.9448C37.5427 36.9452 34.8296 38.069 32.0007 38.069C29.1717 38.069 26.4586 36.9452 24.4582 34.9448C22.4578 32.9444 21.334 30.2313 21.334 27.4023" stroke="white" stroke-width="5" stroke-linecap="round" stroke-linejoin="round"/>
</svg>
