<svg width="30" height="29" viewBox="0 0 30 29" fill="none" xmlns="http://www.w3.org/2000/svg">
<path d="M15.1996 10.7998V15.5998M15.1996 19.1998H15.2116M13.2352 4.30904L3.50799 20.5498C3.30747 20.8971 3.20135 21.2908 3.2002 21.6918C3.19906 22.0928 3.30291 22.4871 3.50145 22.8355C3.69998 23.1839 3.98627 23.4743 4.33184 23.6777C4.67741 23.8811 5.07022 23.9905 5.47119 23.995H24.928C25.3288 23.9904 25.7214 23.881 26.0668 23.6776C26.4122 23.4743 26.6984 23.184 26.8969 22.8358C27.0954 22.4876 27.1993 22.0935 27.1983 21.6927C27.1973 21.2919 27.0914 20.8983 26.8912 20.551L17.164 4.30784C16.9593 3.97004 16.671 3.69073 16.3269 3.49687C15.9828 3.30302 15.5945 3.20117 15.1996 3.20117C14.8046 3.20117 14.4164 3.30302 14.0723 3.49687C13.7281 3.69073 13.4398 3.97004 13.2352 4.30784V4.30904Z" stroke="#4D5562" stroke-width="2.4" stroke-linecap="round" stroke-linejoin="round"/>
</svg>
