<svg width="20" height="20" viewBox="0 0 20 20" fill="none" xmlns="http://www.w3.org/2000/svg">
<path d="M3.33398 9.99984C3.33398 10.2209 3.42178 10.4328 3.57806 10.5891C3.73434 10.7454 3.9463 10.8332 4.16732 10.8332C4.38833 10.8332 4.60029 10.7454 4.75657 10.5891C4.91285 10.4328 5.00065 10.2209 5.00065 9.99984C5.00065 9.77882 4.91285 9.56686 4.75657 9.41058C4.60029 9.2543 4.38833 9.1665 4.16732 9.1665C3.9463 9.1665 3.73434 9.2543 3.57806 9.41058C3.42178 9.56686 3.33398 9.77882 3.33398 9.99984ZM9.16732 9.99984C9.16732 10.2209 9.25512 10.4328 9.4114 10.5891C9.56768 10.7454 9.77964 10.8332 10.0007 10.8332C10.2217 10.8332 10.4336 10.7454 10.5899 10.5891C10.7462 10.4328 10.834 10.2209 10.834 9.99984C10.834 9.77882 10.7462 9.56686 10.5899 9.41058C10.4336 9.2543 10.2217 9.1665 10.0007 9.1665C9.77964 9.1665 9.56768 9.2543 9.4114 9.41058C9.25512 9.56686 9.16732 9.77882 9.16732 9.99984ZM15.0007 9.99984C15.0007 10.2209 15.0884 10.4328 15.2447 10.5891C15.401 10.7454 15.613 10.8332 15.834 10.8332C16.055 10.8332 16.267 10.7454 16.4232 10.5891C16.5795 10.4328 16.6673 10.2209 16.6673 9.99984C16.6673 9.77882 16.5795 9.56686 16.4232 9.41058C16.267 9.2543 16.055 9.1665 15.834 9.1665C15.613 9.1665 15.401 9.2543 15.2447 9.41058C15.0884 9.56686 15.0007 9.77882 15.0007 9.99984Z" fill="#6C727F" stroke="#6C727F" stroke-width="1.2" stroke-linecap="round" stroke-linejoin="round"/>
</svg>
