<svg width="104" height="46" viewBox="0 0 104 46" fill="none" xmlns="http://www.w3.org/2000/svg">
<path d="M45.3027 32.6404C45.3027 32.628 45.3032 32.6188 45.3049 32.6066C45.5884 30.6097 46.5811 13.6942 60.2906 12.4632C68.9983 12.0936 78.6627 19.3528 88.574 19.3528C94.0301 19.3528 99.0205 17.1414 102.974 12.947C103.055 12.8618 103.199 12.9178 103.199 13.0348V27.0465C103.199 27.3063 103.1 27.5573 102.919 27.7432C98.8543 31.9051 93.7638 34.0989 88.2114 34.0989C78.3001 34.0989 69.8393 27.2093 59.928 27.2093C54.5762 27.2093 49.6724 29.337 45.7555 33.3769C45.5926 33.5449 45.3027 33.4315 45.3027 33.1975V32.6404Z" fill="url(#paint0_linear_959_3168)"/>
<path d="M0.702865 13.731V9.04893H23.0937V13.731H14.7113V36.3861H9.08526V13.731H0.702865ZM25.107 36.3861H18.9901L28.4675 9.04893H35.7549L45.1945 36.3861H39.1154L37.0575 30.0804H27.1648L25.107 36.3861ZM28.5996 25.6627H35.6227L32.2056 15.2036H32.0168L28.5996 25.6627ZM46.2457 9.04893L52.8912 29.8916H53.1555L59.8388 9.04893H66.1067L56.6671 36.3861H49.3797L39.9023 9.04893H46.2457ZM68.4296 36.3861V9.04893H86.7802V13.731H74.0934V20.3765H85.8363V25.0585H74.0934V31.704H86.818V36.3861H68.4296Z" fill="white"/>
<defs>
<linearGradient id="paint0_linear_959_3168" x1="100.572" y1="10.0087" x2="37.3835" y2="40.4802" gradientUnits="userSpaceOnUse">
<stop stop-color="#64B4FF"/>
<stop offset="0.324999" stop-color="#1A5BFF"/>
<stop offset="1" stop-color="#233D81"/>
</linearGradient>
</defs>
</svg>
