<svg width="16" height="16" viewBox="0 0 16 16" fill="none" xmlns="http://www.w3.org/2000/svg">
<path d="M1 4.66683V3.00016C1 2.55814 1.17559 2.13421 1.48816 1.82165C1.80072 1.50909 2.22464 1.3335 2.66667 1.3335H4.33333M1 11.3335V13.0002C1 13.4422 1.17559 13.8661 1.48816 14.1787C1.80072 14.4912 2.22464 14.6668 2.66667 14.6668H4.33333M11 1.3335H12.6667C13.1087 1.3335 13.5326 1.50909 13.8452 1.82165C14.1577 2.13421 14.3333 2.55814 14.3333 3.00016V4.66683M11 14.6668H12.6667C13.1087 14.6668 13.5326 14.4912 13.8452 14.1787C14.1577 13.8661 14.3333 13.4422 14.3333 13.0002V11.3335M7.66667 11.3335V5.50016M5.16667 5.50016H10.1667" stroke="#6C727F" stroke-width="1.4" stroke-linecap="round" stroke-linejoin="round"/>
</svg>
