<svg width="64" height="65" viewBox="0 0 64 65" fill="none" xmlns="http://www.w3.org/2000/svg">
<path d="M39.2006 17.5359C38.712 18.0344 38.4383 18.7046 38.4383 19.4026C38.4383 20.1006 38.712 20.7708 39.2006 21.2693L43.4673 25.5359C43.9657 26.0246 44.6359 26.2982 45.3339 26.2982C46.0319 26.2982 46.7021 26.0246 47.2006 25.5359L57.2539 15.4826C58.5948 18.4458 59.0008 21.7472 58.4178 24.947C57.8348 28.1468 56.2905 31.0929 53.9907 33.3927C51.6908 35.6925 48.7447 37.2368 45.545 37.8198C42.3452 38.4028 39.0438 37.9968 36.0806 36.6559L17.6539 55.0826C16.5931 56.1435 15.1542 56.7395 13.6539 56.7395C12.1536 56.7395 10.7148 56.1435 9.65392 55.0826C8.59306 54.0217 7.99707 52.5829 7.99707 51.0826C7.99707 49.5823 8.59306 48.1435 9.65392 47.0826L28.0806 28.6559C26.7397 25.6928 26.3337 22.3913 26.9167 19.1916C27.4997 15.9918 29.044 13.0457 31.3438 10.7459C33.6437 8.44605 36.5898 6.90173 39.7895 6.31873C42.9893 5.73572 46.2908 6.14172 49.2539 7.48262L39.2273 17.5093L39.2006 17.5359Z" stroke="white" stroke-width="5" stroke-linecap="round" stroke-linejoin="round"/>
</svg>
