<svg width="64" height="65" viewBox="0 0 64 65" fill="none" xmlns="http://www.w3.org/2000/svg">
<path d="M8 16.7354H13.3333H56" stroke="white" stroke-width="5" stroke-linecap="round" stroke-linejoin="round"/>
<path d="M50.6663 16.7355V54.0688C50.6663 55.4833 50.1044 56.8399 49.1042 57.8401C48.1041 58.8403 46.7475 59.4022 45.333 59.4022H18.6663C17.2519 59.4022 15.8953 58.8403 14.8951 57.8401C13.8949 56.8399 13.333 55.4833 13.333 54.0688V16.7355M21.333 16.7355V11.4022C21.333 9.98769 21.8949 8.63114 22.8951 7.63094C23.8953 6.63075 25.2519 6.06885 26.6663 6.06885H37.333C38.7475 6.06885 40.104 6.63075 41.1042 7.63094C42.1044 8.63114 42.6663 9.98769 42.6663 11.4022V16.7355" stroke="white" stroke-width="5" stroke-linecap="round" stroke-linejoin="round"/>
<path d="M26.666 30.0684V46.0684" stroke="white" stroke-width="5" stroke-linecap="round" stroke-linejoin="round"/>
<path d="M37.333 30.0688V46.0688" stroke="white" stroke-width="5" stroke-linecap="round" stroke-linejoin="round"/>
</svg>
